<?xml version="1.0" ?><svg enable-background="new 0 0 64 64" height="64px" id="Layer_1" version="1.1" viewBox="0 0 64 64" width="64px" xml:space="preserve" xmlns="http://www.w3.org/2000/svg" xmlns:xlink="http://www.w3.org/1999/xlink"><circle cx="32" cy="32" fill="#4F5D73" r="32"/><path d="M54,40c0,5.523-4.477,10-10,10c-5.523,0-10-4.477-10-10c0-10,10-18,10-18S54,30,54,40z" fill="#231F20" opacity="0.2"/><path d="M54,38c0,5.523-4.477,10-10,10c-5.523,0-10-4.477-10-10c0-10,10-18,10-18S54,28,54,38z" fill="#C75C5C"/><path d="M42,32c0,5.523-4.477,10-10,10c-5.523,0-10-4.477-10-10c0-10,10-18,10-18S42,22,42,32z" fill="#231F20" opacity="0.2"/><path d="M42,30c0,5.523-4.477,10-10,10c-5.523,0-10-4.477-10-10c0-10,10-18,10-18S42,20,42,30z" fill="#77B3D4"/><path d="M30,40c0,5.523-4.477,10-10,10c-5.523,0-10-4.477-10-10c0-10,10-18,10-18S30,30,30,40z" fill="#231F20" opacity="0.2"/><path d="M30,38c0,5.523-4.477,10-10,10c-5.523,0-10-4.477-10-10c0-10,10-18,10-18S30,28,30,38z" fill="#F5CF87"/></svg>