<?xml version="1.0" encoding="utf-8"?>
<!-- Generator: Adobe Illustrator 23.0.1, SVG Export Plug-In . SVG Version: 6.00 Build 0)  -->
<svg version="1.1" id="圖層_1" xmlns="http://www.w3.org/2000/svg" xmlns:xlink="http://www.w3.org/1999/xlink" x="0px" y="0px"
	 viewBox="0 0 349 74" style="enable-background:new 0 0 349 74;" xml:space="preserve">
<style type="text/css">
	.st0{fill:#29B7B7;}
	.st1{display:none;}
	.st2{display:inline;fill:#008CBA;}
	.st3{display:inline;fill:none;stroke:#00E984;stroke-width:5;stroke-miterlimit:10;}
</style>
<g id="nav">
</g>
<g id="user_x5F_back">
</g>
<g>
	<g>
		<g>
			<path class="st0" d="M121.8,55v18.3H114v-50h15.1c5.7,0,10,1.3,13,3.9s4.5,6.4,4.5,11.4c0,5-1.8,9-5.4,12.1
				c-3.6,3-8,4.5-13.3,4.3H121.8z M121.8,29.8v18.7h5.6c7.5,0,11.2-3.2,11.2-9.6c0-6.1-3.6-9.1-10.7-9.1
				C127.8,29.8,121.8,29.8,121.8,29.8z"/>
			<path class="st0" d="M202.5,73.3h-9.1l-8.1-13.6c-1.6-2.7-3-4.5-4.3-5.5s-2.8-1.5-4.5-1.5h-4.2v20.5h-7.7v-50h15.9
				c5.2,0,9.2,1.2,12,3.5s4.2,5.6,4.2,9.9c0,3.4-1,6.2-2.9,8.6c-2,2.4-4.7,4-8.2,5v0.1c2.2,0.8,4.7,3.4,7.5,7.9L202.5,73.3z
				 M172.3,29.7v16.7h6.9c2.9,0,5.1-0.8,6.9-2.5s2.6-3.8,2.6-6.3c0-5.2-3.1-7.8-9.3-7.8L172.3,29.7L172.3,29.7z"/>
			<path class="st0" d="M225.6,29.6L225.6,29.6v37.3v0v6.3h-7.7V67v0V29.7v0v-6.3h7.7V29.6z"/>
			<path class="st0" d="M245.1,62.9c3.8,3.1,8.3,4.7,13.5,4.7c6.6,0,9.9-2.3,9.9-6.8c0-1.3-0.4-2.5-1.1-3.5c-0.7-1-1.7-2-3-2.8
				c-1.2-0.8-3.7-2-7.3-3.8c-4.5-2.2-7.6-4.3-9.4-6.5c-1.8-2.2-2.7-4.8-2.7-7.8c0-4.3,1.7-7.7,5.1-10.2c3.4-2.5,7.7-3.7,13-3.7
				c5,0,8.8,0.6,11.4,1.8v7.9c-3.1-2.1-6.9-3.2-11.5-3.2c-3,0-5.3,0.6-7.1,1.8c-1.8,1.2-2.7,2.8-2.7,4.9c0,1.9,0.7,3.4,2,4.6
				c1.3,1.2,4.1,2.8,8.4,4.8c5,2.3,8.4,4.7,10.3,7s2.8,5,2.8,8c0,4.5-1.6,8-4.9,10.4s-7.8,3.6-13.6,3.6c-2.1,0-4.5-0.3-7.1-0.8
				c-2.6-0.5-4.6-1.2-6-2.1L245.1,62.9L245.1,62.9z"/>
			<path class="st0" d="M340.6,73.3V41c0-2.8,0.1-6.2,0.5-10h-0.2c-0.6,2.8-1.1,4.6-1.5,5.5l-15.2,36.8h-5.1l-15.3-36.5
				c-0.4-0.9-0.9-2.8-1.5-5.7h-0.2c0.2,3,0.3,6.6,0.3,10.9v31.4h-7.2v-50h10.8l13.5,33c1,2.6,1.8,4.7,2.1,6.4h0.2
				c0.4-1.3,1.2-3.5,2.3-6.5l13.7-32.9h10.4v50H340.6z"/>
		</g>
		<path class="st0" d="M29.5,74.3h56L77.2,60h-41L29.5,74.3z M15.9,74.3l8.9-14.7l5.2-8.6l6.5-11.2l-8.6-13.1l-6.2,10.8L0.3,74.3
			L15.9,74.3L15.9,74.3z M42.9,28.5L53,45.9h16.2L42.9,0.5l-8.1,14l8,14.1L42.9,28.5z"/>
	</g>
</g>
<g id="圖層_4">
</g>
<g id="rule" class="st1">
	<rect x="195" y="-3674" class="st2" width="8" height="6272"/>
	<rect x="-371" y="-5352.3" class="st3" width="1140" height="7334.8"/>
	<rect x="195" y="-5895" class="st2" width="8" height="6272"/>
</g>
</svg>
