<?xml version="1.0" encoding="utf-8"?>
<!-- Generator: Adobe Illustrator 23.0.1, SVG Export Plug-In . SVG Version: 6.00 Build 0)  -->
<svg version="1.1" xmlns="http://www.w3.org/2000/svg" xmlns:xlink="http://www.w3.org/1999/xlink" x="0px" y="0px"
	 viewBox="0 0 349 74" style="enable-background:new 0 0 349 74;" xml:space="preserve">
<style type="text/css">
	.st0{fill:#3A3A3A;}
	.st1{fill:#2D2D2D;}
	.st2{fill:#FFFFFF;}
	.st3{fill:#EFEFEF;}
	.st4{fill:#424242;}
	.st5{opacity:0.53;fill:#565656;}
	.st6{opacity:0.7;}
	.st7{fill:#5EBFDB;}
	.st8{fill:none;stroke:#FFDA40;stroke-width:2;stroke-miterlimit:10;}
	.st9{fill:#FFDA40;}
	.st10{fill:#5B5B5B;}
	.st11{clip-path:url(#SVGID_6_);}
	.st12{clip-path:url(#SVGID_8_);}
	.st13{clip-path:url(#SVGID_10_);}
	.st14{fill:#008CBA;}
	.st15{fill:#EEEEEE;}
	.st16{fill:#F2F2F2;stroke:#F2F2F2;stroke-miterlimit:10;}
	.st17{fill:#FFFFFF;stroke:#DDDDDD;stroke-miterlimit:10;}
	.st18{fill:none;stroke:#B2B2B2;stroke-miterlimit:10;}
	.st19{fill:#5EBFDC;}
	.st20{fill:#F0B85A;}
	.st21{fill:#CCCCCC;}
	.st22{fill:#FFFFFF;stroke:#606060;stroke-width:0.8;stroke-miterlimit:10;}
	.st23{clip-path:url(#SVGID_12_);}
	.st24{clip-path:url(#SVGID_14_);}
	.st25{clip-path:url(#SVGID_16_);}
	.st26{fill:none;stroke:#DDDDDD;stroke-miterlimit:10;}
	.st27{clip-path:url(#SVGID_18_);}
	.st28{clip-path:url(#SVGID_20_);}
	.st29{clip-path:url(#SVGID_22_);}
	.st30{fill:none;stroke:#BFBFBF;stroke-width:0.75;stroke-miterlimit:10;}
	.st31{clip-path:url(#SVGID_24_);}
	.st32{clip-path:url(#SVGID_26_);}
	.st33{clip-path:url(#SVGID_28_);}
	.st34{clip-path:url(#SVGID_30_);}
	.st35{clip-path:url(#SVGID_32_);}
	.st36{fill:#D8D8D8;}
	.st37{fill:none;stroke:#D8D8D8;stroke-width:0.6;stroke-miterlimit:10;}
	.st38{fill:#474747;}
	.st39{fill:#95D6EA;}
	.st40{opacity:0.75;}
	.st41{fill:#3C4A4B;}
	.st42{opacity:0.05;fill:#008CBA;}
	.st43{fill:#565656;}
	.st44{fill:none;stroke:#EDEDED;stroke-miterlimit:10;}
	.st45{fill:none;stroke:#008CBA;stroke-width:3;stroke-miterlimit:10;}
	.st46{fill:none;stroke:#D3D3D3;stroke-miterlimit:10;}
	.st47{fill:#FFFFFF;stroke:#D3D3D3;stroke-miterlimit:10;}
	.st48{fill:#30AFEF;}
	.st49{fill:#1877F2;}
	.st50{fill:none;stroke:#FFFFFF;stroke-miterlimit:10;}
	.st51{display:none;}
	.st52{display:inline;fill:none;stroke:#00E984;stroke-width:5;stroke-miterlimit:10;}
	.st53{display:inline;fill:#008CBA;}
</style>
<g id="nav">
</g>
<g id="user_x5F_back">
</g>
<g id="圖層_2">
	<g>
		<g>
			<path class="st14" d="M121.76,55.01V73.3h-7.74V23.33h15.1c5.66,0,9.99,1.31,13,3.92s4.52,6.4,4.52,11.37
				c0,5.01-1.8,9.04-5.39,12.08c-3.59,3.04-8.03,4.48-13.32,4.31H121.76z M121.76,29.81v18.74h5.55c7.46,0,11.19-3.2,11.19-9.61
				c0-6.09-3.58-9.13-10.74-9.13H121.76z"/>
			<path class="st14" d="M202.53,73.3h-9.07l-8.13-13.61c-1.59-2.67-3.04-4.48-4.34-5.45c-1.3-0.97-2.79-1.45-4.47-1.45h-4.19V73.3
				h-7.74V23.33h15.9c5.18,0,9.19,1.17,12.02,3.5c2.83,2.33,4.24,5.64,4.24,9.92c0,3.36-0.98,6.23-2.94,8.61
				c-1.96,2.39-4.69,4.05-8.19,5v0.13c2.24,0.77,4.74,3.4,7.52,7.87L202.53,73.3z M172.33,29.71v16.65h6.87
				c2.86,0,5.14-0.83,6.85-2.48s2.56-3.76,2.56-6.32c0-5.23-3.1-7.84-9.29-7.84H172.33z"/>
			<path class="st14" d="M225.58,29.65v0.03v37.26v0.03v6.32h-7.74v-6.32v-0.03V29.68v-0.03v-6.32h7.74V29.65z"/>
			<path class="st14" d="M245.06,62.94c3.83,3.12,8.33,4.68,13.52,4.68c6.62,0,9.94-2.27,9.94-6.81c0-1.31-0.37-2.49-1.1-3.55
				c-0.73-1.05-1.71-1.97-2.95-2.76c-1.24-0.79-3.68-2.05-7.34-3.79c-4.5-2.15-7.64-4.33-9.42-6.55c-1.79-2.21-2.68-4.82-2.68-7.81
				c0-4.3,1.7-7.69,5.1-10.16c3.4-2.47,7.74-3.71,13.03-3.71c5.01,0,8.79,0.61,11.35,1.84v7.94c-3.08-2.13-6.91-3.19-11.52-3.19
				c-2.95,0-5.32,0.59-7.13,1.77c-1.81,1.18-2.71,2.81-2.71,4.87c0,1.87,0.66,3.41,1.98,4.61c1.32,1.21,4.11,2.82,8.37,4.84
				c4.97,2.32,8.4,4.65,10.29,6.98c1.89,2.33,2.84,5.02,2.84,8.05c0,4.52-1.63,7.97-4.9,10.36c-3.27,2.39-7.8,3.58-13.58,3.58
				c-2.13,0-4.5-0.26-7.1-0.77c-2.6-0.52-4.6-1.2-6-2.06V62.94z"/>
			<path class="st14" d="M340.6,73.3V41.04c0-2.82,0.15-6.16,0.45-10.03h-0.19c-0.65,2.77-1.15,4.59-1.52,5.45L324.15,73.3h-5.06
				l-15.26-36.55c-0.39-0.92-0.89-2.84-1.52-5.74h-0.19c0.21,3.01,0.32,6.65,0.32,10.9V73.3h-7.19V23.33h10.81l13.52,33
				c1.05,2.58,1.75,4.72,2.1,6.42h0.23c0.41-1.35,1.16-3.53,2.26-6.52l13.74-32.9h10.39V73.3H340.6z"/>
		</g>
		<path class="st14" d="M29.55,74.27H85.5l-8.26-14.3H36.26L29.55,74.27z M15.85,74.27l8.86-14.69l5.22-8.65l6.48-11.23l-8.6-13.1
			l-6.22,10.78l-21.3,36.9H15.85z M42.89,28.46l10.08,17.47h16.16L42.89,0.47L34.8,14.49l8.04,14.07L42.89,28.46z"/>
	</g>
</g>
<g id="圖層_4">
</g>
<g id="rule" class="st51">
	<rect x="195" y="-3674" transform="matrix(-1 -1.224647e-16 1.224647e-16 -1 398 -1076)" class="st53" width="8" height="6272"/>
	<rect x="-371" y="-5352.31" class="st52" width="1140" height="7334.81"/>
	<rect x="195" y="-5895" transform="matrix(-1 -1.224647e-16 1.224647e-16 -1 398 -5518)" class="st53" width="8" height="6272"/>
</g>
</svg>
